<mxfile host="app.diagrams.net" modified="2023-06-12T11:26:55.874Z" agent="Mozilla/5.0 (Macintosh; Intel Mac OS X 10_15_7) AppleWebKit/605.1.15 (KHTML, like Gecko) Version/16.4 Safari/605.1.15" version="21.3.8" etag="Z8Upj-kCXRDUSyyeWzAG" type="github">
  <diagram name="Seite-1" id="4anoEk9efol0BoclXax6">
    <mxGraphModel>
      <root>
        <mxCell id="0" />
        <mxCell id="1" parent="0" />
      </root>
    </mxGraphModel>
  </diagram>
</mxfile>
